HIERARCHY
ROOT joint_Root
{
  OFFSET 0 0 0
  CHANNELS 6 Xposition Yposition Zposition Zrotation Xrotation Yrotation
  JOINT Hips
  {
    OFFSET 0 93.9241 -3
    CHANNELS 6 Xposition Yposition Zposition Zrotation Xrotation Yrotation
    JOINT Spine
    {
      OFFSET 15.7357 0 0
      CHANNELS 6 Xposition Yposition Zposition Zrotation Xrotation Yrotation
      JOINT Chest
      {
        OFFSET 8.98455 -0.406207 0
        CHANNELS 6 Xposition Yposition Zposition Zrotation Xrotation Yrotation
        JOINT Neck
        {
          OFFSET 16.3773 0 0
          CHANNELS 6 Xposition Yposition Zposition Zrotation Xrotation Yrotation
          JOINT Head
          {
            OFFSET 6.45672 0 0
            CHANNELS 6 Xposition Yposition Zposition Zrotation Xrotation Yrotation
            End Site
            {
              OFFSET 0 0 0
            }
          }
        }
        JOINT Shoulder_L
        {
          OFFSET 12.9942 -0.242716 4.98039
          CHANNELS 6 Xposition Yposition Zposition Zrotation Xrotation Yrotation
          JOINT UpperArm_L
          {
            OFFSET 5.34809 0 0
            CHANNELS 6 Xposition Yposition Zposition Zrotation Xrotation Yrotation
            JOINT LowerArm_L
            {
              OFFSET 24.3286 1.87007e-05 0
              CHANNELS 6 Xposition Yposition Zposition Zrotation Xrotation Yrotation
              JOINT Hand_L
              {
                OFFSET 22.2916 0 0
                CHANNELS 6 Xposition Yposition Zposition Zrotation Xrotation Yrotation
                End Site
                {
                  OFFSET 0 0 0
                }
              }
            }
          }
        }
        JOINT Shoulder_R
        {
          OFFSET 12.9945 -0.242716 -4.98039
          CHANNELS 6 Xposition Yposition Zposition Zrotation Xrotation Yrotation
          JOINT UpperArm_R
          {
            OFFSET -5.34813 0 0
            CHANNELS 6 Xposition Yposition Zposition Zrotation Xrotation Yrotation
            JOINT LowerArm_R
            {
              OFFSET -24.3289 0.000322201 0
              CHANNELS 6 Xposition Yposition Zposition Zrotation Xrotation Yrotation
              JOINT Hand_R
              {
                OFFSET -22.2915 -0.000108084 0
                CHANNELS 6 Xposition Yposition Zposition Zrotation Xrotation Yrotation
                End Site
                {
                  OFFSET 0 0 0
                }
              }
            }
          }
        }
      }
    }
    JOINT UpperLeg_L
    {
      OFFSET -2.19248 -6.46944 0
      CHANNELS 6 Xposition Yposition Zposition Zrotation Xrotation Yrotation
      JOINT LowerLeg_L
      {
        OFFSET 39.0811 0 -1.23785e-05
        CHANNELS 6 Xposition Yposition Zposition Zrotation Xrotation Yrotation
        JOINT Foot_L
        {
          OFFSET 40.9854 0 -1.26872e-05
          CHANNELS 6 Xposition Yposition Zposition Zrotation Xrotation Yrotation
          JOINT Toes_L
          {
            OFFSET 11.7543 0 0
            CHANNELS 6 Xposition Yposition Zposition Zrotation Xrotation Yrotation
            End Site
            {
              OFFSET 0 0 0
            }
          }
        }
      }
    }
    JOINT UpperLeg_R
    {
      OFFSET -2.19251 6.46944 0
      CHANNELS 6 Xposition Yposition Zposition Zrotation Xrotation Yrotation
      JOINT LowerLeg_R
      {
        OFFSET -39.0811 -0.00228153 -0.0401928
        CHANNELS 6 Xposition Yposition Zposition Zrotation Xrotation Yrotation
        JOINT Foot_R
        {
          OFFSET -40.9854 0 0
          CHANNELS 6 Xposition Yposition Zposition Zrotation Xrotation Yrotation
          JOINT Toes_R
          {
            OFFSET -11.7543 0 0
            CHANNELS 6 Xposition Yposition Zposition Zrotation Xrotation Yrotation
            End Site
            {
              OFFSET 0 0 0
            }
          }
        }
      }
    }
  }
}
MOTION
Frames:	6
Frame Time:	0.0333333
0 0 0 0 0 -0 -3.6418 91.6621 -4.73102 87.6429 -6.81959 1.22738 15.7357 5.1072e-06 -5.51765e-07 110.344 83.2488 -110.433 8.98455 -0.406207 -4.3199e-07 4.91093 4.68715 -0.378611 16.3773 -1.3905e-06 -6.99897e-07 -2.81194 4.19905 -3.35425 6.45672 -1.25837e-06 -1.02172e-07 8.66984 -0.131206 -5.70658 12.9942 -0.242716 4.98039 -89.7056 -1.78627 -95.6408 5.34809 -7.22636e-06 -6.2814e-07 -78.4249 -4.29735 1.84859 24.3286 1.87007e-05 4.90208e-06 7.53045 13.0373 -30.3702 22.2916 -9.88446e-07 4.63217e-06 7.35757 5.20051 2.70639 12.9945 -0.242716 -4.98039 89.8865 2.51001 -102.408 -5.34813 -1.25947e-06 -3.79883e-06 -75.9125 0.639512 7.40886 -24.3289 0.000322201 -8.65921e-06 5.00954 10.0851 -26.5968 -22.2915 -0.000108084 -4.47941e-06 14.9863 5.45614 -4.86053 -2.19248 -6.46944 -1.22534e-07 -176.638 -1.7438 -14.5876 39.0811 -6.73843e-06 -1.23785e-05 0.0155186 -0.0156875 29.1147 40.9854 -6.48686e-06 -1.26872e-05 -0.463377 -1.34197 -63.3782 11.7543 -2.30145e-07 3.05095e-06 0.0148572 -0.0165138 -16.7394 -2.19251 6.46944 -1.45247e-06 -171.145 11.7222 173.863 -39.0811 -0.00228153 -0.0401928 0.091448 -0.185094 20.7499 -40.9854 7.72618e-06 5.99936e-06 4.16009 -13.5955 -65.0035 -11.7543 -5.6619e-06 -5.58687e-06 -0.0382627 0.0246622 -16.5736 
0 0 0 0 0 -0 -3.6241 91.5865 -4.13422 87.6262 -6.70276 1.64734 15.7357 5.1072e-06 -5.51765e-07 112.263 83.7271 -112.238 8.98455 -0.406207 -4.3199e-07 3.85466 4.74563 -0.110945 16.3773 -1.3905e-06 -6.99897e-07 -3.69152 4.18704 -3.22145 6.45672 -1.25837e-06 -1.02172e-07 7.80798 -0.0361908 -5.52367 12.9942 -0.242716 4.98039 -89.6906 -1.91473 -95.8182 5.34809 -7.22636e-06 -6.2814e-07 -78.5563 -3.73747 1.79778 24.3286 1.87007e-05 4.90208e-06 7.45489 13.1916 -29.8294 22.2916 -9.88446e-07 4.63217e-06 7.11751 5.20219 2.66431 12.9945 -0.242716 -4.98039 89.9045 2.29541 -102.617 -5.34813 -1.25947e-06 -3.79883e-06 -76.1047 -0.12208 7.54266 -24.3289 0.000322201 -8.65921e-06 4.82202 10.2982 -25.2673 -22.2915 -0.000108084 -4.47941e-06 14.8236 5.44898 -4.60267 -2.19248 -6.46944 -1.22534e-07 -176.666 -1.50931 -13.9932 39.0811 -6.73843e-06 -1.23785e-05 0.0167263 -0.0159067 29.617 40.9854 -6.48686e-06 -1.26872e-05 -0.458464 -1.45823 -64.0627 11.7543 -2.30145e-07 3.05095e-06 0.0102757 -0.0114011 -16.6893 -2.19251 6.46944 -1.45247e-06 -171.356 11.7048 174.532 -39.0811 -0.00228153 -0.0401928 0.0910556 -0.178418 21.153 -40.9854 7.72618e-06 5.99936e-06 3.82504 -13.7803 -65.6425 -11.7543 -5.6619e-06 -5.58687e-06 -0.0459751 0.0296116 -16.5735 
0 0 0 0 0 -0 -3.61129 91.5227 -3.60371 87.6345 -6.65415 1.94393 15.7357 5.1072e-06 -5.51765e-07 114.229 84.1062 -114.131 8.98455 -0.406207 -4.3199e-07 2.98865 4.82845 0.0698354 16.3773 -1.3905e-06 -6.99897e-07 -4.61351 4.26512 -3.08527 6.45672 -1.25837e-06 -1.02172e-07 7.36576 0.0503345 -5.41812 12.9942 -0.242716 4.98039 -89.6898 -1.96782 -96.0406 5.34809 -7.22636e-06 -6.2814e-07 -78.49 -3.16672 1.58051 24.3286 1.87007e-05 4.90208e-06 7.30245 13.3485 -29.0322 22.2916 -9.88446e-07 4.63217e-06 6.92122 5.20193 2.67063 12.9945 -0.242716 -4.98039 89.9174 2.16582 -102.814 -5.34813 -1.25947e-06 -3.79883e-06 -76.2233 -0.70857 7.60295 -24.3289 0.000322201 -8.65921e-06 4.66476 10.4185 -24.2904 -22.2915 -0.000108084 -4.47941e-06 14.6744 5.44695 -4.53059 -2.19248 -6.46944 -1.22534e-07 -176.718 -1.19787 -13.5044 39.0811 -6.73843e-06 -1.23785e-05 0.0174779 -0.015704 30.0012 40.9854 -6.48686e-06 -1.26872e-05 -0.489439 -1.67731 -64.6469 11.7543 -2.30145e-07 3.05095e-06 0.0115856 -0.0128826 -16.7038 -2.19251 6.46944 -1.45247e-06 -171.537 11.6689 175.079 -39.0811 -0.00228153 -0.0401928 0.0915123 -0.175335 21.4507 -40.9854 7.72618e-06 5.99936e-06 3.54902 -13.9211 -66.1826 -11.7543 -5.6619e-06 -5.58687e-06 -0.0434787 0.0279529 -16.5736 
0 0 0 0 0 -0 -3.59096 91.4837 -3.1728 87.6912 -6.68782 2.11535 15.7357 5.1072e-06 -5.51765e-07 116.23 84.4007 -116.102 8.98455 -0.406207 -4.3199e-07 2.28199 4.93968 0.158146 16.3773 -1.3905e-06 -6.99897e-07 -5.3009 4.34026 -3.00477 6.45672 -1.25837e-06 -1.02172e-07 6.94736 0.160323 -5.25088 12.9942 -0.242716 4.98039 -89.6865 -2.04041 -96.2632 5.34809 -7.22636e-06 -6.2814e-07 -78.4625 -3.13897 1.30028 24.3286 1.87007e-05 4.90208e-06 7.11041 13.4776 -28.1564 22.2916 -9.88446e-07 4.63217e-06 6.83213 5.19867 2.75273 12.9945 -0.242716 -4.98039 89.9295 2.02266 -103 -5.34813 -1.25947e-06 -3.79883e-06 -76.3476 -0.956834 7.61195 -24.3289 0.000322201 -8.65921e-06 4.56535 10.4826 -23.7008 -22.2915 -0.000108084 -4.47941e-06 14.6202 5.44341 -4.40479 -2.19248 -6.46944 -1.22534e-07 -176.825 -0.949374 -13.1187 39.0811 -6.73843e-06 -1.23785e-05 0.0185156 -0.0169159 30.1921 40.9854 -6.48686e-06 -1.26872e-05 -0.529027 -1.94849 -65.0605 11.7543 -2.30145e-07 3.05095e-06 -0.000990832 0.000821078 -16.5774 -2.19251 6.46944 -1.45247e-06 -171.736 11.6595 175.477 -39.0811 -0.00228153 -0.0401928 0.0908762 -0.17134 21.6363 -40.9854 7.72618e-06 5.99936e-06 3.34682 -13.9249 -66.5852 -11.7543 -5.6619e-06 -5.58687e-06 -0.0416156 0.026775 -16.5736 
0 0 0 0 0 -0 -3.58697 91.4576 -2.80871 87.7317 -6.75198 2.25716 15.7357 5.1072e-06 -5.51765e-07 117.815 84.6241 -117.678 8.98455 -0.406207 -4.3199e-07 1.74447 5.0069 0.198231 16.3773 -1.3905e-06 -6.99897e-07 -5.72058 4.43353 -2.87973 6.45672 -1.25837e-06 -1.02172e-07 6.46483 0.343497 -5.06854 12.9942 -0.242716 4.98039 -89.6694 -2.17065 -96.338 5.34809 -7.22636e-06 -6.2814e-07 -78.4481 -3.21802 0.994834 24.3286 1.87007e-05 4.90208e-06 6.85822 13.5298 -27.2074 22.2916 -9.88446e-07 4.63217e-06 6.96232 5.19823 2.7633 12.9945 -0.242716 -4.98039 89.9392 1.84835 -103.116 -5.34813 -1.25947e-06 -3.79883e-06 -76.5254 -0.949973 7.61316 -24.3289 0.000322201 -8.65921e-06 4.64163 10.7209 -23.5834 -22.2915 -0.000108084 -4.47941e-06 14.5164 5.44099 -4.32039 -2.19248 -6.46944 -1.22534e-07 -176.896 -0.900843 -12.762 39.0811 -6.73843e-06 -1.23785e-05 0.018107 -0.0156669 30.3105 40.9854 -6.48686e-06 -1.26872e-05 -0.543652 -2.07849 -65.3969 11.7543 -2.30145e-07 3.05095e-06 0.00100849 -0.00110469 -16.5883 -2.19251 6.46944 -1.45247e-06 -171.883 11.6084 175.864 -39.0811 -0.00228153 -0.0401928 0.0913921 -0.171571 21.7026 -40.9854 7.72618e-06 5.99936e-06 3.20104 -13.9141 -66.8823 -11.7543 -5.6619e-06 -5.58687e-06 -0.0464178 0.0298837 -16.5736 
0 0 0 0 0 -0 -3.58093 91.4389 -2.48189 87.7724 -6.8795 2.37715 15.7357 5.1072e-06 -5.51765e-07 119.1 84.7835 -118.952 8.98455 -0.406207 -4.3199e-07 1.34947 5.0632 0.236916 16.3773 -1.3905e-06 -6.99897e-07 -6.0183 4.55649 -2.79711 6.45672 -1.25837e-06 -1.02172e-07 6.28082 0.556424 -4.9387 12.9942 -0.242716 4.98039 -89.6654 -2.1906 -96.3151 5.34809 -7.22636e-06 -6.2814e-07 -78.3204 -3.22427 0.834323 24.3286 1.87007e-05 4.90208e-06 6.63513 13.5202 -26.4533 22.2916 -9.88446e-07 4.63217e-06 6.98511 5.19509 2.8422 12.9945 -0.242716 -4.98039 89.9478 1.64743 -103.183 -5.34813 -1.25947e-06 -3.79883e-06 -76.6956 -0.831795 7.65453 -24.3289 0.000322201 -8.65921e-06 4.68942 10.7333 -23.7764 -22.2915 -0.000108084 -4.47941e-06 14.4687 5.44351 -4.40902 -2.19248 -6.46944 -1.22534e-07 -176.956 -1.0014 -12.4186 39.0811 -6.73843e-06 -1.23785e-05 0.0150177 -0.00968791 30.3784 40.9854 -6.48686e-06 -1.26872e-05 -0.534874 -2.10645 -65.6872 11.7543 -2.30145e-07 3.05095e-06 0.00661047 -0.00733834 -16.6494 -2.19251 6.46944 -1.45247e-06 -172.068 11.8173 176.229 -39.0811 -0.00228153 -0.0401928 0.08955 -0.166641 21.7349 -40.9854 7.72618e-06 5.99936e-06 3.11849 -13.5993 -67.1469 -11.7543 -5.6619e-06 -5.58687e-06 -0.0495049 0.0319513 -16.5736 
